<svg width="162" height="172" viewBox="0 0 162 172" fill="none" xmlns="http://www.w3.org/2000/svg">
    <ellipse cx="81.1664" cy="13.8132" rx="12.5361" ry="10.5049" fill="#FFF173"/>
    <ellipse cx="81.1664" cy="13.8132" rx="12.5361" ry="10.5049" fill="#FFF173"/>
    <ellipse cx="81.1664" cy="13.8132" rx="12.5361" ry="10.5049" fill="#FFF173"/>
    <ellipse cx="81.1664" cy="13.8132" rx="12.5361" ry="10.5049" fill="#FFF173"/>
    <ellipse cx="81.1664" cy="89.8193" rx="12.5361" ry="10.5049" fill="#FFF173"/>
    <ellipse cx="81.1664" cy="89.8193" rx="12.5361" ry="10.5049" fill="#FFF173"/>
    <ellipse cx="81.1664" cy="89.8193" rx="12.5361" ry="10.5049" fill="#FFF173"/>
    <ellipse cx="81.1664" cy="89.8193" rx="12.5361" ry="10.5049" fill="#FFF173"/>
    <ellipse cx="150.463" cy="138.327" rx="10.0986" ry="8.96005" fill="#FFF173"/>
    <ellipse cx="150.463" cy="138.327" rx="10.0986" ry="8.96005" fill="#FFF173"/>
    <ellipse cx="150.463" cy="138.327" rx="10.0986" ry="8.96005" fill="#FFF173"/>
    <ellipse cx="150.463" cy="138.327" rx="10.0986" ry="8.96005" fill="#FFF173"/>
    <ellipse cx="96.8365" cy="160.573" rx="6.6163" ry="5.87038" fill="#FFF173"/>
    <ellipse cx="96.8365" cy="160.573" rx="6.6163" ry="5.87038" fill="#FFF173"/>
    <ellipse cx="96.8365" cy="160.573" rx="6.6163" ry="5.87038" fill="#FFF173"/>
    <ellipse cx="96.8365" cy="160.573" rx="6.6163" ry="5.87038" fill="#73C4FF"/>
    <ellipse cx="96.8365" cy="160.573" rx="6.6163" ry="5.87038" fill="#73C4FF"/>
    <ellipse cx="96.8365" cy="160.573" rx="6.6163" ry="5.87038" fill="#73C4FF"/>
    <ellipse cx="150.463" cy="79.0054" rx="6.6163" ry="5.87038" fill="#FFF173"/>
    <ellipse cx="150.463" cy="79.0054" rx="6.6163" ry="5.87038" fill="#FFF173"/>
    <ellipse cx="150.463" cy="79.0054" rx="6.6163" ry="5.87038" fill="#FFF173"/>
    <ellipse cx="150.463" cy="79.0054" rx="6.6163" ry="5.87038" fill="#73C4FF"/>
    <ellipse cx="150.463" cy="79.0054" rx="6.6163" ry="5.87038" fill="#73C4FF"/>
    <ellipse cx="150.463" cy="79.0054" rx="6.6163" ry="5.87038" fill="#73C4FF"/>
    <ellipse cx="22.3161" cy="42.5471" rx="6.6163" ry="5.87038" fill="#FFF173"/>
    <ellipse cx="22.3161" cy="42.5471" rx="6.6163" ry="5.87038" fill="#FFF173"/>
    <ellipse cx="22.3161" cy="42.5471" rx="6.6163" ry="5.87038" fill="#FFF173"/>
    <ellipse cx="22.3161" cy="42.5471" rx="6.6163" ry="5.87038" fill="#73C4FF"/>
    <ellipse cx="22.3161" cy="42.5471" rx="6.6163" ry="5.87038" fill="#73C4FF"/>
    <ellipse cx="22.3161" cy="42.5471" rx="6.6163" ry="5.87038" fill="#73C4FF"/>
    <ellipse cx="39.031" cy="137.709" rx="6.6163" ry="5.87038" fill="#FFF173"/>
    <ellipse cx="39.031" cy="137.709" rx="6.6163" ry="5.87038" fill="#FFF173"/>
    <ellipse cx="39.031" cy="137.709" rx="6.6163" ry="5.87038" fill="#FFF173"/>
    <ellipse cx="39.031" cy="137.709" rx="6.6163" ry="5.87038" fill="#73C4FF"/>
    <ellipse cx="39.031" cy="137.709" rx="6.6163" ry="5.87038" fill="#73C4FF"/>
    <ellipse cx="39.031" cy="137.709" rx="6.6163" ry="5.87038" fill="#73C4FF"/>
    <path d="M75.5948 1.57821C73.9233 2.38152 71.5553 4.04994 70.441 5.34761C68.5606 7.44858 68.282 8.2519 68.1427 12.0831C68.0731 15.7907 67.7945 16.6558 66.3319 18.0771C61.9443 22.2172 57.1388 30.4975 53.6565 39.7666C52.6118 42.6709 51.6368 45.2044 51.4975 45.3898C51.3582 45.6369 48.9206 45.2662 46.1348 44.71C43.349 44.0921 39.1007 43.4124 36.8024 43.1652C32.6933 42.7944 32.554 42.6709 31.5093 40.3845C28.4449 33.4636 16.1177 34.2051 14.5855 41.435C14.2373 43.1652 13.6105 43.7213 10.4068 45.0808C2.74584 48.2941 -0.666778 54.4734 0.935063 62.1358C2.39761 69.242 8.73533 78.82 17.5803 87.3475L21.759 91.3641L17.3017 95.6896C11.4515 101.313 5.32271 109.47 2.95477 114.722C-4.00975 130.109 3.92981 139.192 25.102 140.304C31.0218 140.613 32.3451 140.861 34.0166 142.097C36.872 144.259 40.9811 144.136 43.4187 141.849C44.4633 140.922 45.6473 139.687 45.9955 139.13C46.4134 138.574 47.8063 137.895 49.1296 137.709L51.5672 137.338L53.5172 142.776C58.1138 155.567 65.7051 166.011 73.4358 170.027C77.8234 172.314 84.2308 172.375 88.8274 170.151C91.2649 168.977 93.0061 168.606 96.6973 168.606C101.294 168.606 101.572 168.544 103.871 166.32C105.89 164.342 106.239 163.539 106.239 160.944C106.239 158.904 105.821 157.483 104.846 156.433L103.523 154.888L105.821 149.697C107.144 146.855 108.746 142.9 109.442 140.922C110.139 139.007 110.975 137.4 111.392 137.4C111.81 137.4 115.293 137.956 119.123 138.574C122.954 139.254 128.804 139.996 132.147 140.243C138.136 140.675 138.275 140.675 139.599 142.714C142.245 146.669 148.026 148.647 153.11 147.287C159.378 145.619 163 139.748 161.049 134.496C160.214 132.21 160.214 131.468 160.98 129.491C164.323 121.21 157.985 107.863 144.544 95.1953L140.434 91.2405L143.011 89.0159C145.379 87.0385 145.867 86.8532 148.722 87.1003C156.035 87.7801 161.049 81.1064 157.567 75.2978C156.592 73.5676 156.662 73.2586 158.194 70.5397C163.278 61.7032 162.791 52.805 156.94 47.9851C154.224 45.6987 147.817 43.4742 142.036 42.8562C135.699 42.1147 124.625 42.918 116.337 44.6482C112.507 45.4516 110.905 45.5751 110.696 45.0808C110.557 44.71 109.303 41.4968 107.91 37.9745C104.846 30.0032 101.781 24.5036 97.6723 19.6837C94.8865 16.285 94.5383 15.6053 94.2597 11.8359C94.0507 8.37549 93.6329 7.325 91.8917 5.34761C89.3845 2.50511 84.579 0.21875 81.1664 0.21875C79.7735 0.21875 77.2662 0.836685 75.5948 1.57821ZM86.2505 4.35891C88.5488 5.34761 90.7078 8.31369 91.3346 11.1562C91.6132 12.6392 91.3346 13.9987 90.1506 16.0997C87.9916 19.8073 84.8576 21.4139 80.3306 21.0431C69.0481 20.178 67.307 6.95424 78.0323 3.61739C80.9574 2.75228 83.0468 2.93766 86.2505 4.35891ZM77.4055 23.4531C81.9325 24.6272 86.3201 23.7621 90.081 20.8578L92.8668 18.7568L95.0954 21.0431C99.8313 26.1102 108.885 45.2044 107.214 46.502C106.865 46.7492 103.94 47.7379 100.667 48.6648C97.3937 49.6535 91.9614 51.5073 88.4791 52.805C85.0665 54.1644 81.7932 55.2149 81.3057 55.2149C80.8182 55.2149 77.4752 54.1026 73.8536 52.7432C70.2321 51.3837 64.5908 49.4681 61.1782 48.4794C57.8352 47.4289 54.9798 46.3785 54.8405 46.0695C54.4923 45.1426 58.1835 35.9354 61.0389 30.5593C62.5711 27.655 65.0783 23.8238 66.6105 21.97L69.466 18.6332L71.7643 20.6106C72.9482 21.6611 75.5251 22.9587 77.4055 23.4531ZM27.1913 39.5194C29.6289 41.8675 29.5593 45.3898 27.1217 47.12C24.3359 49.0356 21.0625 48.8502 18.9035 46.502C16.5356 44.0303 16.6052 41.9293 19.1125 39.7048C21.759 37.3566 24.893 37.2948 27.1913 39.5194ZM42.5829 46.8728C46.0652 47.4289 49.2689 48.1087 49.7564 48.3558C50.3832 48.7266 50.3135 50.2714 49.1992 54.9677C48.4331 58.3046 47.4581 63.866 47.0402 67.2646L46.2045 73.444L40.8418 76.9662C37.9167 78.8818 32.9022 82.4658 29.6985 84.9376L23.8483 89.4485L20.4357 86.0498C14.3069 79.9941 10.1282 74.7416 7.13349 69.4274C4.41732 64.4839 4.20839 63.866 4.20839 58.8607C4.20839 54.1026 4.41732 53.3611 6.08881 51.4455C7.06384 50.2096 9.36214 48.603 11.1729 47.7379L14.3766 46.2549L15.8391 48.0469C17.441 49.9007 20.9232 51.5073 23.4305 51.5073C25.9377 51.5073 29.5593 49.5917 31.0218 47.4289C32.6933 45.1426 31.8575 45.2044 42.5829 46.8728ZM146.563 46.1931C151.647 47.4289 155.339 49.7771 157.149 52.8668C159.169 56.4508 158.751 62.6919 156.105 67.9444L154.224 71.7138L150.812 71.4048C148.165 71.2194 146.911 71.4048 145.031 72.4553C140.992 74.6799 139.599 79.9941 142.106 83.4545C143.29 84.9994 143.29 85.0612 140.852 87.2239L138.415 89.3867L132.565 84.8758C129.431 82.404 124.416 78.82 121.491 76.9044L116.198 73.444L115.362 67.2646C114.875 63.866 113.9 58.3046 113.134 54.9677C112.367 51.6309 112.019 48.603 112.298 48.3558C112.576 48.1087 115.989 47.3054 119.819 46.6874C128.316 45.1426 141.131 44.9572 146.563 46.1931ZM110.348 56.389C111.183 59.9112 112.019 64.7311 112.298 67.0793L112.716 71.2812L105.682 67.45C101.851 65.2872 95.7222 62.1358 92.031 60.4674C88.3398 58.7371 85.3451 57.1923 85.3451 57.0069C85.3451 56.08 107.632 48.912 108.467 49.5917C108.746 49.7771 109.582 52.8668 110.348 56.389ZM63.964 52.187C68.2124 53.6083 73.0179 55.2767 74.4804 55.9564L77.1966 57.1923L70.0231 60.5292C66.123 62.383 59.9246 65.5344 56.3727 67.5736C48.7117 71.8374 49.0599 72.1463 50.8707 62.0122C52.7511 51.6927 53.3779 49.6535 54.8405 49.6535C55.5369 49.6535 59.646 50.8276 63.964 52.187ZM89.8024 62.5065C97.8116 66.2759 108.955 72.2081 111.88 74.2473C113.482 75.4214 113.482 75.7303 113.76 87.5947C113.969 94.2066 113.83 101.498 113.551 103.785L113.064 107.863L106.378 111.756C98.2295 116.452 85.0665 122.941 82.42 123.497C80.8878 123.867 78.8681 123.188 72.3911 120.098C63.964 116.143 53.3083 110.458 50.4528 108.481C48.851 107.307 48.851 106.998 48.5724 95.4424C48.3635 88.9541 48.5028 81.6625 48.7117 79.1908C49.1992 74.8652 49.3385 74.6181 51.7761 73.1968C62.2229 67.0793 78.9377 58.9225 80.9574 58.9225C81.5843 58.9225 85.554 60.5292 89.8024 62.5065ZM153.876 75.6685C157.428 79.3762 155.06 84.2578 149.767 84.2578C144.335 84.2578 141.758 78.511 145.658 75.2978C148.374 73.0732 151.578 73.1968 153.876 75.6685ZM45.6473 91.3641C45.6473 99.0265 45.508 105.268 45.3687 105.268C44.9509 105.268 32.8326 96.6165 28.6539 93.4033L25.9377 91.3023L30.6039 87.6565C36.4541 83.0838 44.4633 77.5223 45.1598 77.4606C45.4384 77.4606 45.6473 83.7017 45.6473 91.3641ZM124.137 82.3422C127.898 85.0612 132.147 88.2126 133.679 89.3249L136.325 91.4259L131.938 94.8245C125.879 99.459 117.66 105.268 117.103 105.268C116.894 105.268 116.685 99.0265 116.685 91.3641C116.685 83.7017 116.825 77.4606 116.964 77.4606C117.173 77.4606 120.377 79.6851 124.137 82.3422ZM29.8378 97.9142C32.9719 100.324 37.9167 103.908 40.8418 105.824L46.1348 109.284L46.9706 115.464C47.4581 118.862 48.4331 124.424 49.1992 127.76C49.9653 131.097 50.3135 134.063 50.035 134.311C49.7564 134.558 48.7117 134.928 47.7367 135.114C46.2741 135.423 45.5777 135.114 44.0455 133.384C40.3543 129.305 34.0862 130.109 31.7879 135.052L30.6736 137.524L23.7091 137.215C15.4213 136.844 10.964 135.608 7.34242 132.519C1.00471 127.204 2.25832 118.615 10.8247 107.245C14.4462 102.487 22.943 93.5269 23.7787 93.5269C23.9876 93.5269 26.7038 95.5042 29.8378 97.9142ZM142.942 97.667C149.349 104.155 152.553 108.234 155.269 113.301C158.751 119.789 159.587 124.238 158.124 128.564C157.915 129.058 157.08 128.935 155.199 128.069C148.374 124.98 140.295 128.255 138.275 134.928L137.509 137.4H133.54C126.993 137.4 111.81 134.867 111.81 133.816C111.81 133.569 112.437 130.727 113.134 127.513C113.9 124.3 114.875 118.924 115.293 115.587L116.198 109.593L123.232 104.711C127.063 102.054 132.007 98.4085 134.097 96.7401C136.186 95.0099 138.136 93.5886 138.345 93.5269C138.624 93.5269 140.713 95.3807 142.942 97.667ZM70.441 122.384C74.0626 123.991 76.9877 125.536 76.9877 125.721C76.9877 126.648 54.2137 133.878 53.7262 133.136C53.0993 132.271 50.5225 119.851 50.035 115.649L49.6171 111.447L56.7905 115.402C60.7603 117.565 66.8891 120.716 70.441 122.384ZM112.228 115.278C112.019 117.441 111.183 122.323 110.348 126.092C109.094 132.148 108.676 133.075 107.562 133.075C106.169 133.075 90.7078 128.069 87.1559 126.463L85.1362 125.536L93.0061 121.828C97.3937 119.851 103.453 116.699 106.517 114.846C109.651 113.054 112.298 111.509 112.437 111.509C112.576 111.447 112.507 113.177 112.228 115.278ZM89.0363 130.232C92.9364 131.653 98.717 133.631 101.921 134.62L107.701 136.288L107.283 138.265C107.005 139.316 105.473 143.085 103.94 146.669L101.015 153.158L98.4384 152.972C94.4686 152.663 90.9864 154.455 89.3845 157.607C88.0613 160.264 88.2005 164.157 89.5935 164.96C90.8471 165.64 90.1506 166.443 87.2952 167.803C78.5895 171.757 69.466 166.814 62.1532 154.208C59.2978 149.388 54.7012 138.636 54.7012 136.906C54.7012 136.535 57.6263 135.423 61.1782 134.311C64.6605 133.26 70.441 131.344 73.8536 130.047C77.3359 128.749 80.5396 127.637 81.0271 127.575C81.5146 127.513 85.0665 128.749 89.0363 130.232ZM153.597 130.17C155.965 131.221 158.473 134.743 158.473 136.906C158.473 141.417 154.642 144.815 149.628 144.815C144.683 144.815 141.131 141.602 141.061 137.091C141.061 131.592 148.095 127.699 153.597 130.17ZM42.0258 135.67C43.6972 138.821 40.2846 141.849 36.7327 140.366C34.4344 139.378 33.8076 136.288 35.6184 134.681C37.4292 133.075 40.9114 133.631 42.0258 135.67ZM101.433 156.927C104.149 159.09 103.662 163.786 100.528 165.269C96.349 167.246 91.6132 164.898 91.6132 160.82C91.6132 156.309 97.6723 153.899 101.433 156.927Z" fill="black"/>
    <path d="M84.5094 15.729C81.445 18.5097 81.3753 18.7568 83.3254 18.7568C84.9969 18.7568 89.0363 15.3582 88.6881 14.3077C88.1309 12.9483 87.0862 13.319 84.5094 15.729Z" fill="black"/>
    <path d="M25.7287 43.7831C25.4502 44.3392 24.4751 45.0807 23.5697 45.3897C21.6893 46.0076 21.759 47.3671 23.5697 47.6761C24.9626 47.9232 28.4449 45.0189 28.0967 43.9685C27.6092 42.7944 26.1466 42.6708 25.7287 43.7831Z" fill="black"/>
    <path d="M77.0573 80.2413C71.0678 81.9097 67.5856 86.5442 68.0731 92.4146C68.282 95.1953 68.8392 96.493 70.441 98.285C72.9482 101.127 77.7538 103.414 81.1664 103.414C84.579 103.414 89.3845 101.127 91.8918 98.285C93.4936 96.493 94.0508 95.1953 94.2597 92.3528C94.7472 86.5442 91.1953 81.8479 85.0665 80.2413C81.0271 79.129 81.0271 79.129 77.0573 80.2413ZM86.5987 83.6399C91.4042 86.2352 92.7275 92.6 89.3845 96.7401C85.1362 102.116 75.3162 101.313 71.9732 95.3807C67.3766 87.3475 77.8931 78.9436 86.5987 83.6399Z" fill="black"/>
    <path d="M84.4397 94.4538C83.3951 95.3189 82.0022 95.9986 81.445 95.9986C80.8878 95.9986 80.47 96.4312 80.47 96.9255C80.47 98.4704 83.7433 97.976 86.1112 96.1222C87.4345 95.0717 88.1309 94.0212 87.8524 93.6505C87.1559 92.6 86.6684 92.7236 84.4397 94.4538Z" fill="black"/>
    <path d="M151.299 80.5503C149.071 82.6512 149.349 84.0725 151.717 82.9602C153.597 82.0951 154.294 81.23 154.294 79.7469C154.294 78.2639 153.528 78.4493 151.299 80.5503Z" fill="black"/>
    <path d="M153.597 139.872C153.18 140.614 151.926 141.293 150.742 141.54C148.235 141.973 148.026 143.58 150.463 143.58C152.553 143.58 156.801 140.366 156.105 139.378C155.339 138.265 154.433 138.513 153.597 139.872Z" fill="black"/>
    <path d="M99.4831 161.685C99.2045 162.118 98.3688 162.674 97.742 162.921C96.0008 163.477 96.1401 165.207 97.8812 165.207C99.4831 165.207 102.269 162.983 101.921 161.932C101.503 160.882 100.18 160.696 99.4831 161.685Z" fill="black"/>
</svg>