<svg width="32" height="32" viewBox="0 0 32 32" fill="none" xmlns="http://www.w3.org/2000/svg">
<ellipse cx="16.0296" cy="3.16685" rx="2.22865" ry="1.86754" fill="#FFF173"/>
<ellipse cx="16.0296" cy="3.16685" rx="2.22865" ry="1.86754" fill="#FFF173"/>
<ellipse cx="16.0296" cy="3.16685" rx="2.22865" ry="1.86754" fill="#FFF173"/>
<ellipse cx="16.0296" cy="3.16685" rx="2.22865" ry="1.86754" fill="#FFF173"/>
<ellipse cx="16.0296" cy="16.6788" rx="2.22865" ry="1.86754" fill="#FFF173"/>
<ellipse cx="16.0296" cy="16.6788" rx="2.22865" ry="1.86754" fill="#FFF173"/>
<ellipse cx="16.0296" cy="16.6788" rx="2.22865" ry="1.86754" fill="#FFF173"/>
<ellipse cx="16.0296" cy="16.6788" rx="2.22865" ry="1.86754" fill="#FFF173"/>
<ellipse cx="28.349" cy="25.3026" rx="1.7953" ry="1.5929" fill="#FFF173"/>
<ellipse cx="28.349" cy="25.3026" rx="1.7953" ry="1.5929" fill="#FFF173"/>
<ellipse cx="28.349" cy="25.3026" rx="1.7953" ry="1.5929" fill="#FFF173"/>
<ellipse cx="28.349" cy="25.3026" rx="1.7953" ry="1.5929" fill="#FFF173"/>
<ellipse cx="18.8154" cy="29.2572" rx="1.17623" ry="1.04362" fill="#FFF173"/>
<ellipse cx="18.8154" cy="29.2572" rx="1.17623" ry="1.04362" fill="#FFF173"/>
<ellipse cx="18.8154" cy="29.2572" rx="1.17623" ry="1.04362" fill="#FFF173"/>
<ellipse cx="18.8154" cy="29.2572" rx="1.17623" ry="1.04362" fill="#73C4FF"/>
<ellipse cx="18.8154" cy="29.2572" rx="1.17623" ry="1.04362" fill="#73C4FF"/>
<ellipse cx="18.8154" cy="29.2572" rx="1.17623" ry="1.04362" fill="#73C4FF"/>
<ellipse cx="28.3491" cy="14.7565" rx="1.17623" ry="1.04362" fill="#FFF173"/>
<ellipse cx="28.3491" cy="14.7565" rx="1.17623" ry="1.04362" fill="#FFF173"/>
<ellipse cx="28.3491" cy="14.7565" rx="1.17623" ry="1.04362" fill="#FFF173"/>
<ellipse cx="28.3491" cy="14.7565" rx="1.17623" ry="1.04362" fill="#73C4FF"/>
<ellipse cx="28.3491" cy="14.7565" rx="1.17623" ry="1.04362" fill="#73C4FF"/>
<ellipse cx="28.3491" cy="14.7565" rx="1.17623" ry="1.04362" fill="#73C4FF"/>
<ellipse cx="5.56734" cy="8.27507" rx="1.17623" ry="1.04362" fill="#FFF173"/>
<ellipse cx="5.56734" cy="8.27507" rx="1.17623" ry="1.04362" fill="#FFF173"/>
<ellipse cx="5.56734" cy="8.27507" rx="1.17623" ry="1.04362" fill="#FFF173"/>
<ellipse cx="5.56734" cy="8.27507" rx="1.17623" ry="1.04362" fill="#73C4FF"/>
<ellipse cx="5.56734" cy="8.27507" rx="1.17623" ry="1.04362" fill="#73C4FF"/>
<ellipse cx="5.56734" cy="8.27507" rx="1.17623" ry="1.04362" fill="#73C4FF"/>
<ellipse cx="8.5389" cy="25.1925" rx="1.17623" ry="1.04362" fill="#FFF173"/>
<ellipse cx="8.5389" cy="25.1925" rx="1.17623" ry="1.04362" fill="#FFF173"/>
<ellipse cx="8.5389" cy="25.1925" rx="1.17623" ry="1.04362" fill="#FFF173"/>
<ellipse cx="8.5389" cy="25.1925" rx="1.17623" ry="1.04362" fill="#73C4FF"/>
<ellipse cx="8.5389" cy="25.1925" rx="1.17623" ry="1.04362" fill="#73C4FF"/>
<ellipse cx="8.5389" cy="25.1925" rx="1.17623" ry="1.04362" fill="#73C4FF"/>
<path d="M15.0391 0.991682C14.7419 1.13449 14.3209 1.4311 14.1228 1.6618C13.7885 2.0353 13.739 2.17812 13.7143 2.85922C13.7019 3.51835 13.6524 3.67214 13.3923 3.92481C12.6123 4.66084 11.758 6.1329 11.1389 7.78072C10.9532 8.29704 10.7799 8.74744 10.7551 8.7804C10.7303 8.82434 10.297 8.75843 9.80175 8.65956C9.30649 8.54971 8.55123 8.42887 8.14264 8.38492C7.41214 8.31901 7.38738 8.29704 7.20166 7.89058C6.65688 6.6602 4.46537 6.79203 4.19298 8.07733C4.13108 8.38492 4.01964 8.48379 3.4501 8.72548C2.08815 9.29672 1.48146 10.3953 1.76623 11.7575C2.02624 13.0208 3.15295 14.7236 4.72538 16.2396L5.46826 16.9536L4.67586 17.7226C3.63582 18.7223 2.54626 20.1724 2.12529 21.1061C0.887156 23.8415 2.29863 25.4564 6.06257 25.6541C7.11499 25.7091 7.35023 25.753 7.64739 25.9727C8.15502 26.3572 8.88552 26.3352 9.31887 25.9288C9.50459 25.764 9.71508 25.5443 9.77698 25.4454C9.85127 25.3465 10.0989 25.2257 10.3341 25.1927L10.7675 25.1268L11.1142 26.0936C11.9313 28.3676 13.2809 30.2241 14.6552 30.9382C15.4353 31.3446 16.5744 31.3556 17.3915 30.9601C17.8249 30.7514 18.1344 30.6855 18.7906 30.6855C19.6078 30.6855 19.6573 30.6745 20.0659 30.279C20.425 29.9275 20.4869 29.7847 20.4869 29.3233C20.4869 28.9608 20.4126 28.7081 20.2392 28.5213L20.004 28.2467L20.4126 27.3239C20.6478 26.8186 20.9326 26.1155 21.0564 25.764C21.1802 25.4234 21.3288 25.1378 21.4031 25.1378C21.4774 25.1378 22.0965 25.2367 22.7774 25.3465C23.4584 25.4674 24.4984 25.5992 25.0927 25.6431C26.1575 25.72 26.1823 25.72 26.4176 26.0826C26.888 26.7856 27.9157 27.1372 28.8195 26.8955C29.9339 26.5989 30.5777 25.5553 30.231 24.6215C30.0824 24.215 30.0824 24.0832 30.2186 23.7317C30.8129 22.2596 29.6862 19.8867 27.2966 17.6347L26.5661 16.9316L27.0242 16.5362C27.4452 16.1846 27.5319 16.1517 28.0395 16.1956C29.3396 16.3165 30.231 15.13 29.6119 14.0974C29.4386 13.7898 29.451 13.7349 29.7234 13.2515C30.6272 11.6806 30.5406 10.0987 29.5005 9.24179C29.0176 8.83533 27.8786 8.43985 26.8509 8.33C25.7242 8.19817 23.7556 8.34098 22.2822 8.64858C21.6012 8.79139 21.3164 8.81336 21.2793 8.72548C21.2545 8.65956 21.0317 8.08832 20.784 7.46214C20.2392 6.04501 19.6945 5.0673 18.964 4.21043C18.4687 3.60623 18.4068 3.48539 18.3573 2.81528C18.3201 2.20009 18.2458 2.01333 17.9363 1.6618C17.4906 1.15646 16.6363 0.750001 16.0296 0.750001C15.782 0.750001 15.3362 0.859856 15.0391 0.991682ZM16.9334 1.48603C17.342 1.6618 17.7258 2.1891 17.8373 2.69443C17.8868 2.95809 17.8373 3.19977 17.6268 3.57327C17.243 4.2324 16.6858 4.51803 15.881 4.45211C13.8752 4.29832 13.5657 1.94742 15.4724 1.3542C15.9924 1.20041 16.3639 1.23336 16.9334 1.48603ZM15.361 4.88055C16.1658 5.08927 16.9458 4.93548 17.6144 4.41916L18.1096 4.04565L18.5059 4.45211C19.3478 5.35293 20.9574 8.74744 20.6602 8.97814C20.5983 9.02208 20.0783 9.19785 19.4964 9.36263C18.9144 9.5384 17.9487 9.86797 17.3296 10.0987C16.7229 10.3403 16.141 10.5271 16.0543 10.5271C15.9677 10.5271 15.3734 10.3294 14.7295 10.0877C14.0857 9.846 13.0828 9.50544 12.4761 9.32968C11.8818 9.14292 11.3742 8.95617 11.3494 8.90124C11.2875 8.73646 11.9437 7.09962 12.4514 6.14388C12.7238 5.62756 13.1695 4.94646 13.4419 4.6169L13.9495 4.02368L14.3581 4.37522C14.5686 4.56197 15.0267 4.79267 15.361 4.88055ZM6.43401 7.73678C6.86736 8.15423 6.85498 8.7804 6.42163 9.088C5.92638 9.42855 5.34445 9.39559 4.96063 8.97814C4.53966 8.53872 4.55204 8.16521 4.99777 7.76974C5.46826 7.35229 6.02543 7.3413 6.43401 7.73678ZM9.1703 9.04405C9.78936 9.14292 10.3589 9.26376 10.4456 9.30771C10.557 9.37362 10.5446 9.64826 10.3465 10.4832C10.2103 11.0764 10.037 12.0651 9.9627 12.6693L9.81413 13.7678L8.86076 14.394C8.34074 14.7345 7.44928 15.3717 6.87974 15.8111L5.83971 16.6131L5.23302 16.0089C4.14346 14.9323 3.40057 13.9985 2.86818 13.0538C2.3853 12.1749 2.34816 12.0651 2.34816 11.1752C2.34816 10.3294 2.3853 10.1975 2.68246 9.85698C2.85579 9.63727 3.26438 9.35165 3.5863 9.19785L4.15584 8.9342L4.41585 9.25278C4.70062 9.58234 5.31969 9.86797 5.76542 9.86797C6.21115 9.86797 6.85498 9.52742 7.11499 9.14292C7.41214 8.73646 7.26356 8.74744 9.1703 9.04405ZM27.6557 8.92321C28.5595 9.14292 29.2157 9.56037 29.5377 10.1096C29.8967 10.7468 29.8224 11.8563 29.3519 12.7901L29.0176 13.4602L28.411 13.4053C27.9405 13.3723 27.7176 13.4053 27.3833 13.5921C26.6652 13.9875 26.4176 14.9323 26.8633 15.5475C27.0738 15.8221 27.0738 15.8331 26.6404 16.2176L26.2071 16.6021L25.167 15.8001C24.6099 15.3607 23.7184 14.7236 23.1984 14.383L22.2574 13.7678L22.1088 12.6693C22.0222 12.0651 21.8488 11.0764 21.7126 10.4832C21.5764 9.88994 21.5145 9.35165 21.5641 9.30771C21.6136 9.26376 22.2203 9.12095 22.9012 9.0111C24.4118 8.73646 26.6899 8.7035 27.6557 8.92321ZM21.2174 10.7358C21.366 11.362 21.5145 12.2189 21.5641 12.6363L21.6383 13.3833L20.3878 12.7022C19.7068 12.3177 18.6173 11.7575 17.9611 11.4609C17.3049 11.1533 16.7725 10.8786 16.7725 10.8457C16.7725 10.6809 20.7345 9.40657 20.8831 9.52742C20.9326 9.56037 21.0812 10.1096 21.2174 10.7358ZM12.9714 9.98881C13.7266 10.2415 14.581 10.5381 14.841 10.6589L15.3238 10.8786L14.0486 11.4718C13.3552 11.8014 12.2533 12.3617 11.6218 12.7242C10.2599 13.4822 10.3218 13.5371 10.6437 11.7355C10.978 9.90092 11.0894 9.5384 11.3494 9.5384C11.4732 9.5384 12.2037 9.74713 12.9714 9.98881ZM17.5649 11.8234C18.9887 12.4935 20.9697 13.5481 21.4898 13.9106C21.7745 14.1194 21.7745 14.1743 21.8241 16.2835C21.8612 17.4589 21.8364 18.7552 21.7869 19.1617L21.7002 19.8867L20.5116 20.5788C19.063 21.4137 16.7229 22.5672 16.2524 22.6661C15.9801 22.732 15.621 22.6111 14.4695 22.0619C12.9714 21.3588 11.077 20.3481 10.5694 19.9966C10.2846 19.7879 10.2846 19.7329 10.2351 17.6787C10.198 16.5252 10.2227 15.2289 10.2599 14.7895C10.3465 14.0205 10.3713 13.9765 10.8046 13.7239C12.6618 12.6363 15.6334 11.1862 15.9924 11.1862C16.1039 11.1862 16.8096 11.4718 17.5649 11.8234ZM28.9557 14.1633C29.5872 14.8224 29.1662 15.6903 28.2252 15.6903C27.2595 15.6903 26.8014 14.6686 27.4947 14.0974C27.9776 13.7019 28.5472 13.7239 28.9557 14.1633ZM9.71508 16.9536C9.71508 18.3158 9.69031 19.4254 9.66555 19.4254C9.59126 19.4254 7.4369 17.8874 6.69402 17.3161L6.21115 16.9426L7.0407 16.2945C8.08073 15.4816 9.50459 14.4929 9.62841 14.4819C9.67793 14.4819 9.71508 15.5914 9.71508 16.9536ZM23.6689 15.3497C24.3375 15.8331 25.0927 16.3934 25.3651 16.5911L25.8356 16.9646L25.0556 17.5688C23.9784 18.3927 22.5174 19.4254 22.4184 19.4254C22.3812 19.4254 22.3441 18.3158 22.3441 16.9536C22.3441 15.5914 22.3688 14.4819 22.3936 14.4819C22.4307 14.4819 23.0003 14.8774 23.6689 15.3497ZM6.9045 18.1181C7.46167 18.5465 8.34074 19.1837 8.86076 19.5242L9.80175 20.1394L9.95032 21.238C10.037 21.8422 10.2103 22.8309 10.3465 23.4241C10.4827 24.0173 10.5446 24.5446 10.4951 24.5885C10.4456 24.6325 10.2599 24.6984 10.0865 24.7314C9.82651 24.7863 9.7027 24.7314 9.4303 24.4238C8.77409 23.6987 7.65977 23.8415 7.25118 24.7204L7.05308 25.1598L5.81494 25.1049C4.34156 25.0389 3.54915 24.8192 2.90532 24.27C1.77861 23.3252 2.00148 21.7982 3.52439 19.7769C4.16822 18.931 5.67875 17.3381 5.82732 17.3381C5.86447 17.3381 6.34734 17.6896 6.9045 18.1181ZM27.0119 18.0741C28.1509 19.2276 28.7205 19.9527 29.2034 20.8535C29.8224 22.0069 29.971 22.7979 29.711 23.5669C29.6739 23.6548 29.5253 23.6328 29.191 23.479C27.9776 22.9297 26.5414 23.512 26.1823 24.6984L26.0461 25.1378H25.3404C24.1765 25.1378 21.4774 24.6874 21.4774 24.5007C21.4774 24.4567 21.5888 23.9514 21.7126 23.3801C21.8488 22.8089 22.0222 21.8531 22.0965 21.2599L22.2574 20.1943L23.5079 19.3265C24.1889 18.8541 25.068 18.206 25.4394 17.9094C25.8109 17.6018 26.1575 17.3491 26.1947 17.3381C26.2442 17.3381 26.6157 17.6677 27.0119 18.0741ZM14.1228 22.4683C14.7667 22.754 15.2867 23.0286 15.2867 23.0616C15.2867 23.2263 11.238 24.5116 11.1513 24.3798C11.0399 24.226 10.5818 22.0179 10.4951 21.2709L10.4208 20.5239L11.6961 21.227C12.4018 21.6115 13.4914 22.1717 14.1228 22.4683ZM21.5517 21.205C21.5145 21.5895 21.366 22.4574 21.2174 23.1275C20.9945 24.204 20.9202 24.3688 20.7221 24.3688C20.4745 24.3688 17.7258 23.479 17.0944 23.1934L16.7353 23.0286L18.1344 22.3695C18.9144 22.0179 19.9916 21.4577 20.5364 21.1281C21.0936 20.8095 21.5641 20.5349 21.5888 20.5349C21.6136 20.5239 21.6012 20.8315 21.5517 21.205ZM17.4287 23.8635C18.122 24.1162 19.1497 24.4677 19.7192 24.6435L20.7469 24.9401L20.6726 25.2916C20.6231 25.4784 20.3507 26.1485 20.0783 26.7856L19.5583 27.9391L19.1002 27.9062C18.3944 27.8512 17.7754 28.1698 17.4906 28.7301C17.2553 29.2025 17.2801 29.8945 17.5277 30.0373C17.7506 30.1582 17.6268 30.301 17.1191 30.5427C15.5715 31.2458 13.9495 30.3669 12.6495 28.1259C12.1418 27.269 11.3247 25.3575 11.3247 25.0499C11.3247 24.984 11.8447 24.7863 12.4761 24.5885C13.0952 24.4018 14.1228 24.0612 14.7295 23.8305C15.3486 23.5998 15.9181 23.4021 16.0048 23.3911C16.0915 23.3801 16.7229 23.5998 17.4287 23.8635ZM28.9062 23.8525C29.3272 24.0393 29.7729 24.6654 29.7729 25.0499C29.7729 25.8519 29.0919 26.4561 28.2005 26.4561C27.3214 26.4561 26.6899 25.8848 26.6776 25.0829C26.6776 24.1052 27.9281 23.4131 28.9062 23.8525ZM9.07124 24.8302C9.3684 25.3905 8.76171 25.9288 8.13026 25.6651C7.72168 25.4894 7.61024 24.9401 7.93216 24.6545C8.25407 24.3688 8.87314 24.4677 9.07124 24.8302ZM19.6326 28.6092C20.1154 28.9937 20.0288 29.8286 19.4716 30.0923C18.7287 30.4438 17.8868 30.0264 17.8868 29.3013C17.8868 28.4994 18.964 28.0709 19.6326 28.6092Z" fill="black"/>
<path d="M16.6239 3.50736C16.0791 4.00171 16.0667 4.04565 16.4134 4.04565C16.7105 4.04565 17.4287 3.44145 17.3668 3.2547C17.2677 3.01302 17.082 3.07893 16.6239 3.50736Z" fill="black"/>
<path d="M6.17399 8.49473C6.12447 8.5936 5.95113 8.72542 5.79017 8.78035C5.45587 8.8902 5.46825 9.13188 5.79017 9.18681C6.0378 9.23075 6.65686 8.71444 6.59496 8.52768C6.50829 8.31896 6.24828 8.29699 6.17399 8.49473Z" fill="black"/>
<path d="M15.2991 14.9761C14.2343 15.2728 13.6152 16.0967 13.7019 17.1403C13.739 17.6346 13.8381 17.8653 14.1229 18.1839C14.5686 18.6892 15.4229 19.0957 16.0296 19.0957C16.6363 19.0957 17.4906 18.6892 17.9363 18.1839C18.2211 17.8653 18.3201 17.6346 18.3573 17.1293C18.444 16.0967 17.8125 15.2618 16.7229 14.9761C16.0048 14.7784 16.0048 14.7784 15.2991 14.9761ZM16.9953 15.5803C17.8497 16.0417 18.0849 17.1732 17.4906 17.9093C16.7353 18.865 14.9896 18.7222 14.3952 17.6676C13.5781 16.2395 15.4477 14.7455 16.9953 15.5803Z" fill="black"/>
<path d="M16.6115 17.503C16.4258 17.6568 16.1782 17.7776 16.0791 17.7776C15.9801 17.7776 15.9058 17.8545 15.9058 17.9424C15.9058 18.217 16.4877 18.1291 16.9087 17.7996C17.1439 17.6128 17.2677 17.4261 17.2182 17.3602C17.0944 17.1734 17.0077 17.1954 16.6115 17.503Z" fill="black"/>
<path d="M28.4976 15.0313C28.1014 15.4048 28.1509 15.6574 28.5719 15.4597C28.9062 15.3059 29.03 15.1521 29.03 14.8885C29.03 14.6248 28.8938 14.6578 28.4976 15.0313Z" fill="black"/>
<path d="M28.9062 25.5772C28.8319 25.709 28.609 25.8299 28.3986 25.8738C27.9528 25.9507 27.9157 26.2363 28.349 26.2363C28.7205 26.2363 29.4757 25.6651 29.3519 25.4893C29.2157 25.2916 29.0548 25.3355 28.9062 25.5772Z" fill="black"/>
<path d="M19.2859 29.4551C19.2364 29.532 19.0878 29.6309 18.9764 29.6748C18.6668 29.7737 18.6916 30.0813 19.0011 30.0813C19.2859 30.0813 19.7812 29.6858 19.7192 29.4991C19.645 29.3123 19.4097 29.2794 19.2859 29.4551Z" fill="black"/>
</svg>
