<svg width="459" height="488" viewBox="0 0 459 488" fill="none" xmlns="http://www.w3.org/2000/svg">
<ellipse cx="229.473" cy="38.6689" rx="35.6584" ry="29.8806" fill="#FFF173"/>
<ellipse cx="229.473" cy="38.6689" rx="35.6584" ry="29.8806" fill="#FFF173"/>
<ellipse cx="229.473" cy="38.6689" rx="35.6584" ry="29.8806" fill="#FFF173"/>
<ellipse cx="229.473" cy="38.6689" rx="35.6584" ry="29.8806" fill="#FFF173"/>
<ellipse cx="229.473" cy="254.864" rx="35.6584" ry="29.8806" fill="#FFF173"/>
<ellipse cx="229.473" cy="254.864" rx="35.6584" ry="29.8806" fill="#FFF173"/>
<ellipse cx="229.473" cy="254.864" rx="35.6584" ry="29.8806" fill="#FFF173"/>
<ellipse cx="229.473" cy="254.864" rx="35.6584" ry="29.8806" fill="#FFF173"/>
<ellipse cx="426.585" cy="392.842" rx="28.7248" ry="25.4864" fill="#FFF173"/>
<ellipse cx="426.585" cy="392.842" rx="28.7248" ry="25.4864" fill="#FFF173"/>
<ellipse cx="426.585" cy="392.842" rx="28.7248" ry="25.4864" fill="#FFF173"/>
<ellipse cx="426.585" cy="392.842" rx="28.7248" ry="25.4864" fill="#FFF173"/>
<ellipse cx="274.046" cy="456.118" rx="18.8197" ry="16.698" fill="#FFF173"/>
<ellipse cx="274.046" cy="456.118" rx="18.8197" ry="16.698" fill="#FFF173"/>
<ellipse cx="274.046" cy="456.118" rx="18.8197" ry="16.698" fill="#FFF173"/>
<ellipse cx="274.046" cy="456.118" rx="18.8197" ry="16.698" fill="#73C4FF"/>
<ellipse cx="274.046" cy="456.118" rx="18.8197" ry="16.698" fill="#73C4FF"/>
<ellipse cx="274.046" cy="456.118" rx="18.8197" ry="16.698" fill="#73C4FF"/>
<ellipse cx="426.585" cy="224.104" rx="18.8197" ry="16.698" fill="#FFF173"/>
<ellipse cx="426.585" cy="224.104" rx="18.8197" ry="16.698" fill="#FFF173"/>
<ellipse cx="426.585" cy="224.104" rx="18.8197" ry="16.698" fill="#FFF173"/>
<ellipse cx="426.585" cy="224.104" rx="18.8197" ry="16.698" fill="#73C4FF"/>
<ellipse cx="426.585" cy="224.104" rx="18.8197" ry="16.698" fill="#73C4FF"/>
<ellipse cx="426.585" cy="224.104" rx="18.8197" ry="16.698" fill="#73C4FF"/>
<ellipse cx="62.0771" cy="120.401" rx="18.8197" ry="16.698" fill="#FFF173"/>
<ellipse cx="62.0771" cy="120.401" rx="18.8197" ry="16.698" fill="#FFF173"/>
<ellipse cx="62.0771" cy="120.401" rx="18.8197" ry="16.698" fill="#FFF173"/>
<ellipse cx="62.0771" cy="120.401" rx="18.8197" ry="16.698" fill="#73C4FF"/>
<ellipse cx="62.0771" cy="120.401" rx="18.8197" ry="16.698" fill="#73C4FF"/>
<ellipse cx="62.0771" cy="120.401" rx="18.8197" ry="16.698" fill="#73C4FF"/>
<ellipse cx="109.622" cy="391.084" rx="18.8197" ry="16.698" fill="#FFF173"/>
<ellipse cx="109.622" cy="391.084" rx="18.8197" ry="16.698" fill="#FFF173"/>
<ellipse cx="109.622" cy="391.084" rx="18.8197" ry="16.698" fill="#FFF173"/>
<ellipse cx="109.622" cy="391.084" rx="18.8197" ry="16.698" fill="#73C4FF"/>
<ellipse cx="109.622" cy="391.084" rx="18.8197" ry="16.698" fill="#73C4FF"/>
<ellipse cx="109.622" cy="391.084" rx="18.8197" ry="16.698" fill="#73C4FF"/>
<path d="M213.625 3.86691C208.871 6.15189 202.135 10.8976 198.966 14.5888C193.617 20.5649 192.824 22.8499 192.428 33.7475C192.23 44.2936 191.438 46.7543 187.278 50.797C174.797 62.5734 161.128 86.1263 151.223 112.492C148.251 120.753 145.478 127.959 145.082 128.486C144.686 129.189 137.752 128.135 129.828 126.553C121.904 124.795 109.82 122.862 103.282 122.159C91.5943 121.104 91.198 120.753 88.2265 114.249C79.51 94.5632 44.446 96.6724 40.0877 117.237C39.0972 122.159 37.3143 123.741 28.2016 127.608C6.41039 136.748 -3.29661 154.324 1.25973 176.12C5.41988 196.333 23.4472 223.577 48.6061 247.833L60.4922 259.258L47.8137 271.562C31.1731 287.556 13.7402 310.758 7.00469 325.698C-12.8055 369.464 9.77812 395.302 70.0011 398.466C86.8398 399.345 90.6037 400.048 95.3582 403.563C103.48 409.715 115.168 409.364 122.102 402.86C125.073 400.224 128.441 396.708 129.432 395.127C130.62 393.545 134.582 391.611 138.346 391.084L145.28 390.029L150.827 405.497C163.901 441.881 185.495 471.586 207.484 483.011C219.964 489.514 238.19 489.69 251.264 483.362C258.198 480.022 263.151 478.968 273.65 478.968C286.725 478.968 287.517 478.792 294.055 472.464C299.799 466.84 300.79 464.555 300.79 457.173C300.79 451.372 299.601 447.33 296.828 444.342L293.064 439.947L299.601 425.183C303.365 417.098 307.922 405.848 309.903 400.224C311.884 394.775 314.261 390.205 315.45 390.205C316.638 390.205 326.543 391.787 337.439 393.545C348.334 395.478 364.975 397.587 374.484 398.29C391.521 399.521 391.917 399.521 395.681 405.321C403.209 416.57 419.651 422.195 434.113 418.328C451.942 413.582 462.243 396.884 456.696 381.944C454.319 375.441 454.319 373.331 456.498 367.707C466.007 344.154 447.98 306.188 409.746 270.155L398.058 258.906L405.388 252.579C412.123 246.954 413.51 246.427 421.632 247.13C442.433 249.063 456.696 230.08 446.791 213.558C444.018 208.637 444.216 207.758 448.574 200.024C463.036 174.889 461.649 149.579 445.008 135.869C437.282 129.365 419.057 123.038 402.614 121.28C384.587 119.171 353.089 121.456 329.515 126.377C318.619 128.662 314.063 129.014 313.469 127.608C313.072 126.553 309.506 117.413 305.544 107.394C296.828 84.7202 288.111 69.0768 276.423 55.3669C268.499 45.6997 267.509 43.7663 266.716 33.0444C266.122 23.2014 264.934 20.2133 259.981 14.5888C252.849 6.50343 239.18 1.14263e-05 229.473 1.14263e-05C225.511 1.14263e-05 218.38 1.75769 213.625 3.86691ZM243.935 11.7765C250.472 14.5888 256.613 23.0256 258.396 31.111C259.189 35.3294 258.396 39.1963 255.028 45.1724C248.887 55.7185 239.973 60.2884 227.096 59.2338C195.004 56.7731 190.051 19.1587 220.559 9.66725C228.879 7.2065 234.822 7.7338 243.935 11.7765ZM218.776 66.0888C231.652 69.4284 244.133 66.9676 254.83 58.7065L262.754 52.7304L269.094 59.2338C282.565 73.6468 308.318 127.959 303.563 131.65C302.573 132.353 294.253 135.166 284.942 137.802C275.631 140.614 260.179 145.887 250.274 149.579C240.567 153.445 231.256 156.434 229.869 156.434C228.483 156.434 218.974 153.27 208.673 149.403C198.371 145.536 182.325 140.087 172.618 137.275C163.109 134.287 154.987 131.299 154.591 130.42C153.6 127.783 164.1 101.594 172.222 86.3021C176.58 78.041 183.712 67.1434 188.07 61.8704L196.192 52.3789L202.729 58.0035C206.097 60.9915 213.427 64.6826 218.776 66.0888ZM75.9442 111.788C82.8778 118.468 82.6797 128.486 75.7461 133.408C67.822 138.857 58.5112 138.329 52.3701 131.65C45.6346 124.62 45.8327 118.643 52.9644 112.316C60.4922 105.637 69.4068 105.461 75.9442 111.788ZM119.725 132.705C129.63 134.287 138.743 136.22 140.129 136.923C141.912 137.978 141.714 142.372 138.544 155.73C136.365 165.222 133.592 181.041 132.403 190.708L130.026 208.285L114.772 218.304C106.452 223.753 92.1886 233.947 83.0759 240.978L66.4353 253.809L56.7283 244.142C39.2953 226.917 27.4092 211.976 18.8908 196.86C11.1648 182.799 10.5705 181.041 10.5705 166.804C10.5705 153.27 11.1648 151.16 15.9193 145.712C18.6927 142.196 25.2301 137.626 30.3807 135.166L39.4934 130.947L43.6536 136.044C48.2099 141.317 58.115 145.887 65.2467 145.887C72.3784 145.887 82.6797 140.439 86.8398 134.287C91.5943 127.783 89.217 127.959 119.725 132.705ZM415.491 130.771C429.953 134.287 440.452 140.966 445.603 149.754C451.348 159.949 450.159 177.701 442.631 192.642L437.282 203.364L427.575 202.485C420.047 201.957 416.482 202.485 411.133 205.473C399.643 211.8 395.681 226.917 402.813 236.76C406.18 241.154 406.18 241.329 399.247 247.481L392.313 253.633L375.673 240.802C366.758 233.771 352.495 223.577 344.174 218.128L329.119 208.285L326.741 190.708C325.355 181.041 322.581 165.222 320.402 155.73C318.223 146.239 317.232 137.626 318.025 136.923C318.817 136.22 328.524 133.935 339.42 132.178C363.588 127.783 400.039 127.256 415.491 130.771ZM312.478 159.773C314.855 169.792 317.232 183.502 318.025 190.181L319.213 202.133L299.205 191.236C288.31 185.084 270.877 176.12 260.377 171.374C249.878 166.452 241.359 162.058 241.359 161.531C241.359 158.894 304.752 138.505 307.129 140.439C307.922 140.966 310.299 149.754 312.478 159.773ZM180.542 147.821C192.626 151.864 206.295 156.609 210.455 158.543L218.181 162.058L197.777 171.55C186.683 176.823 169.052 185.787 158.949 191.587C137.158 203.715 138.148 204.594 143.299 175.768C148.648 146.415 150.431 140.614 154.591 140.614C156.572 140.614 168.26 143.954 180.542 147.821ZM254.038 177.174C276.82 187.896 308.516 204.77 316.836 210.57C321.393 213.91 321.393 214.789 322.185 248.536C322.779 267.343 322.383 288.084 321.591 294.587L320.204 306.188L301.186 317.261C278.008 330.62 240.567 349.075 233.039 350.657C228.681 351.712 222.936 349.778 204.512 340.99C180.542 329.741 150.232 313.57 142.11 307.946C137.554 304.606 137.554 303.727 136.762 270.859C136.167 252.403 136.563 231.662 137.158 224.632C138.544 212.328 138.941 211.625 145.874 207.582C175.59 190.181 223.134 166.98 228.879 166.98C230.662 166.98 241.954 171.55 254.038 177.174ZM436.292 214.613C446.395 225.159 439.66 239.045 424.604 239.045C409.152 239.045 401.822 222.698 412.916 213.558C420.642 207.231 429.754 207.582 436.292 214.613ZM128.441 259.258C128.441 281.053 128.045 298.806 127.649 298.806C126.46 298.806 91.9905 274.198 80.1043 265.058L72.3784 259.082L85.6512 248.712C102.292 235.705 125.073 219.886 127.055 219.71C127.847 219.71 128.441 237.463 128.441 259.258ZM351.702 233.596C362.4 241.329 374.484 250.294 378.842 253.457L386.37 259.434L373.89 269.101C356.655 282.283 333.279 298.806 331.694 298.806C331.1 298.806 330.505 281.053 330.505 259.258C330.505 237.463 330.901 219.71 331.298 219.71C331.892 219.71 341.005 226.038 351.702 233.596ZM83.4721 277.889C92.3867 284.744 106.452 294.939 114.772 300.388L129.828 310.231L132.205 327.807C133.592 337.475 136.365 353.294 138.544 362.785C140.724 372.277 141.714 380.714 140.922 381.417C140.129 382.12 137.158 383.174 134.384 383.702C130.224 384.58 128.243 383.702 123.885 378.78C113.385 367.179 95.5563 369.464 89.0189 383.526L85.8493 390.557L66.0391 389.678C42.465 388.623 29.7864 385.108 19.4851 376.319C1.45784 361.203 5.02367 336.772 29.3902 304.43C39.6915 290.896 63.86 265.41 66.2372 265.41C66.8315 265.41 74.5575 271.034 83.4721 277.889ZM405.19 277.186C423.415 295.642 432.528 307.243 440.254 321.656C450.159 340.111 452.536 352.766 448.376 365.07C447.782 366.476 445.404 366.125 440.056 363.664C420.642 354.876 397.662 364.191 391.917 383.174L389.738 390.205H378.446C359.824 390.205 316.638 382.999 316.638 380.01C316.638 379.307 318.421 371.222 320.402 362.082C322.581 352.942 325.355 337.65 326.543 328.159L329.119 311.109L349.127 297.224C360.022 289.666 374.088 279.295 380.031 274.55C385.974 269.628 391.521 265.585 392.115 265.41C392.907 265.41 398.85 270.683 405.19 277.186ZM198.966 347.493C209.267 352.063 217.587 356.458 217.587 356.985C217.587 359.621 152.808 380.186 151.421 378.077C149.638 375.616 142.308 340.287 140.922 328.335L139.733 316.382L160.138 327.632C171.429 333.783 188.862 342.748 198.966 347.493ZM317.827 327.28C317.232 333.432 314.855 347.318 312.478 358.039C308.912 375.265 307.724 377.901 304.554 377.901C300.592 377.901 256.613 363.664 246.51 359.094L240.765 356.458L263.151 345.911C275.631 340.287 292.866 331.323 301.582 326.05C310.497 320.952 318.025 316.558 318.421 316.558C318.817 316.382 318.619 321.304 317.827 327.28ZM251.859 369.816C262.952 373.859 279.395 379.483 288.508 382.295L304.95 387.041L303.762 392.666C302.969 395.654 298.611 406.376 294.253 416.57L285.932 435.026L278.603 434.499C267.311 433.62 257.406 438.717 252.849 447.681C249.085 455.239 249.482 466.313 253.444 468.598C257.009 470.531 255.028 472.816 246.906 476.683C222.143 487.932 196.192 473.871 175.391 438.014C167.269 424.304 154.194 393.72 154.194 388.799C154.194 387.744 162.515 384.58 172.618 381.417C182.523 378.429 198.966 372.98 208.673 369.289C218.578 365.598 227.69 362.434 229.077 362.258C230.464 362.082 240.567 365.598 251.859 369.816ZM435.499 369.64C442.235 372.628 449.367 382.647 449.367 388.799C449.367 401.63 438.471 411.297 424.208 411.297C410.142 411.297 400.039 402.157 399.841 389.326C399.841 373.683 419.849 362.609 435.499 369.64ZM118.14 385.284C122.894 394.248 113.187 402.86 103.084 398.642C96.5468 395.83 94.7639 387.041 99.9145 382.471C105.065 377.901 114.97 379.483 118.14 385.284ZM287.121 445.748C294.847 451.9 293.46 465.258 284.546 469.476C272.659 475.101 259.189 468.422 259.189 456.821C259.189 443.99 276.423 437.135 287.121 445.748Z" fill="black"/>
<path d="M238.982 44.1178C230.266 52.0274 230.068 52.7305 235.614 52.7305C240.369 52.7305 251.859 43.0632 250.868 40.0752C249.283 36.2083 246.312 37.2629 238.982 44.1178Z" fill="black"/>
<path d="M71.784 123.917C70.9916 125.498 68.2182 127.608 65.6428 128.487C60.2941 130.244 60.4922 134.111 65.6428 134.99C69.6049 135.693 79.51 127.432 78.5195 124.444C77.1327 121.104 72.9726 120.753 71.784 123.917Z" fill="black"/>
<path d="M217.785 227.62C200.748 232.365 190.843 245.548 192.23 262.246C192.824 270.155 194.409 273.847 198.965 278.944C206.097 287.029 219.766 293.533 229.473 293.533C239.18 293.533 252.849 287.029 259.981 278.944C264.537 273.847 266.122 270.155 266.716 262.07C268.103 245.548 258 232.19 240.567 227.62C229.077 224.456 229.077 224.456 217.785 227.62ZM244.925 237.287C258.594 244.669 262.358 262.773 252.849 274.55C240.765 289.841 212.833 287.556 203.324 270.683C190.249 247.833 220.162 223.928 244.925 237.287Z" fill="black"/>
<path d="M238.784 268.046C235.813 270.507 231.851 272.441 230.266 272.441C228.681 272.441 227.492 273.671 227.492 275.077C227.492 279.471 236.803 278.065 243.539 272.792C247.303 269.804 249.284 266.816 248.491 265.761C246.51 262.773 245.123 263.125 238.784 268.046Z" fill="black"/>
<path d="M428.962 228.498C422.623 234.475 423.415 238.517 430.151 235.353C435.499 232.893 437.48 230.432 437.48 226.213C437.48 221.995 435.301 222.522 428.962 228.498Z" fill="black"/>
<path d="M435.499 397.236C434.311 399.345 430.745 401.278 427.377 401.981C420.246 403.212 419.651 407.782 426.585 407.782C432.528 407.782 444.612 398.642 442.631 395.83C440.452 392.666 437.877 393.369 435.499 397.236Z" fill="black"/>
<path d="M281.574 459.282C280.782 460.512 278.405 462.094 276.622 462.797C271.669 464.379 272.065 469.301 277.018 469.301C281.574 469.301 289.498 462.973 288.508 459.985C287.319 456.997 283.555 456.469 281.574 459.282Z" fill="black"/>
</svg>
